<svg width="1024" height="1024" viewBox="0 0 1024 1024" fill="none" xmlns="http://www.w3.org/2000/svg">
<path d="M437.352 78C452.27 78 463.62 80.4983 472.051 84.7139C481.015 89.196 488.098 95.2333 493.544 102.857L499.642 111.395L509.547 107.938C538.341 97.8941 565.291 90.5883 590.416 85.96C615.632 81.3149 639.354 79.0244 661.608 79.0244C721.615 79.0245 770.61 92.5237 809.446 118.627C848.916 145.156 878.255 179.978 897.662 223.321L897.698 223.4L897.734 223.479C917.986 267.247 928.184 315.059 928.184 367.104C928.184 408.608 921.6 450.551 908.342 492.977L908.312 493.071L908.283 493.168C895.748 535.391 876.255 576.079 849.7 615.248L849.654 615.315L849.609 615.384C823.87 654.323 791.478 689.059 752.328 719.583C713.423 749.916 667.748 774.128 615.14 792.112C562.887 809.295 503.678 818 437.352 818C395.237 818 357.865 811.1 325.01 797.586C293.121 784.192 268.334 764.638 250.175 738.992C232.363 713.166 223 680.295 223 639.488C223 614.533 225.965 581.522 232.055 540.23C238.853 498.773 247.014 453.209 256.541 403.533L256.545 403.516L256.548 403.498C266.121 352.898 275.351 301.618 284.239 249.656L285.008 245.165L282.985 241.082L234.606 143.413C268.15 124.809 300.217 109.527 330.815 97.5254C364.657 84.5171 400.137 78.0001 437.352 78ZM552.728 233.296C547.052 233.296 541.136 233.607 534.989 234.214C528.842 234.821 522.446 235.727 515.807 236.919L505.944 238.689L504.44 248.596C501.012 271.173 496.432 299.442 490.698 333.42L490.68 333.534L490.662 333.647C485.516 367.533 479.508 403.701 472.638 442.153L472.623 442.237L472.608 442.32C466.299 480.277 459.99 517.381 453.682 553.634L453.666 553.723L453.651 553.812C447.899 589.608 443.287 620.349 439.822 646.017L438.002 659.495L451.422 661.704C458.68 662.899 465.945 663.796 473.215 664.395C480.451 664.99 487.438 665.292 494.17 665.292C540.123 665.292 579.612 653.92 611.728 630.324C643.732 607.225 667.704 576.806 683.59 539.392C699.301 502.39 707.093 462.525 707.093 419.951C707.093 367.625 695.199 323.618 670.231 289.076L669.033 287.438C642.406 250.941 602.828 233.296 552.728 233.296Z" fill="#E1E5DB" stroke="#4B2C16" stroke-width="28"/>
</svg>
