<svg width="1024" height="1024" viewBox="0 0 1024 1024" fill="none" xmlns="http://www.w3.org/2000/svg">
<path d="M405.352 864C361.661 864 322.408 856.832 287.592 842.496C253.459 828.16 226.493 806.997 206.696 779.008C186.899 750.336 177 714.496 177 671.488C177 645.547 180.072 611.755 186.216 570.112C193.043 528.469 201.235 482.731 210.792 432.896C220.349 382.379 229.565 331.179 238.44 279.296L184.168 169.728C222.397 147.883 258.92 130.133 293.736 116.48C329.235 102.827 366.44 96 405.352 96C421.736 96 435.389 98.7307 446.312 104.192C457.235 109.653 466.109 117.163 472.936 126.72C502.291 116.48 529.939 108.971 555.88 104.192C581.821 99.4133 606.397 97.024 629.608 97.024C691.731 97.024 743.613 111.019 785.256 139.008C826.899 166.997 857.96 203.861 878.44 249.6C899.603 295.339 910.184 345.173 910.184 399.104C910.184 442.112 903.357 485.461 889.704 529.152C876.733 572.843 856.595 614.827 829.288 655.104C802.664 695.381 769.213 731.221 728.936 762.624C688.659 794.027 641.555 818.944 587.624 837.376C533.693 855.125 472.936 864 405.352 864ZM462.17 683.292C505.801 683.292 542.256 672.519 571.534 650.972C601.387 629.426 623.777 601.075 638.703 565.921C653.63 530.766 661.093 492.776 661.093 451.951C661.093 400.92 649.324 359.528 625.786 327.776C602.248 295.456 567.229 279.296 520.727 279.296C515.56 279.296 510.106 279.58 504.365 280.147C498.625 280.714 492.597 281.564 486.281 282.698C482.837 305.379 478.244 333.729 472.503 367.75C467.336 401.771 461.308 438.059 454.419 476.616C448.104 514.606 441.789 551.745 435.474 588.034C429.733 623.756 425.141 654.374 421.696 679.89C428.585 681.024 435.474 681.875 442.363 682.442C449.253 683.009 455.855 683.292 462.17 683.292Z" fill="#99BB97"/>
</svg>
