<svg width="1024" height="1024" viewBox="0 0 1024 1024" fill="none" xmlns="http://www.w3.org/2000/svg">
<path d="M373.352 896C329.661 896 290.408 888.832 255.592 874.496C221.459 860.16 194.493 838.997 174.696 811.008C154.899 782.336 145 746.496 145 703.488C145 677.547 148.072 643.755 154.216 602.112C161.043 560.469 169.235 514.731 178.792 464.896C188.349 414.379 197.565 363.179 206.44 311.296L152.168 201.728C190.397 179.883 226.92 162.133 261.736 148.48C297.235 134.827 334.44 128 373.352 128C389.736 128 403.389 130.731 414.312 136.192C425.235 141.653 434.109 149.163 440.936 158.72C470.291 148.48 497.939 140.971 523.88 136.192C549.821 131.413 574.397 129.024 597.608 129.024C659.731 129.024 711.613 143.019 753.256 171.008C794.899 198.997 825.96 235.861 846.44 281.6C867.603 327.339 878.184 377.173 878.184 431.104C878.184 474.112 871.357 517.461 857.704 561.152C844.733 604.843 824.595 646.827 797.288 687.104C770.664 727.381 737.213 763.221 696.936 794.624C656.659 826.027 609.555 850.944 555.624 869.376C501.693 887.125 440.936 896 373.352 896ZM430.17 715.292C473.801 715.292 510.256 704.519 539.534 682.972C569.387 661.426 591.777 633.075 606.703 597.921C621.63 562.766 629.093 524.776 629.093 483.951C629.093 432.92 617.324 391.528 593.786 359.776C570.248 327.456 535.229 311.296 488.727 311.296C483.56 311.296 478.106 311.58 472.365 312.147C466.625 312.714 460.597 313.564 454.281 314.698C450.837 337.379 446.244 365.729 440.503 399.75C435.336 433.771 429.308 470.059 422.419 508.616C416.104 546.606 409.789 583.745 403.474 620.034C397.733 655.756 393.141 686.374 389.696 711.89C396.585 713.024 403.474 713.875 410.363 714.442C417.253 715.009 423.855 715.292 430.17 715.292Z" fill="#F18917"/>
</svg>
