<svg width="1024" height="1024" viewBox="0 0 1024 1024" fill="none" xmlns="http://www.w3.org/2000/svg">
<path d="M341.352 928C297.661 928 258.408 920.832 223.592 906.496C189.459 892.16 162.493 870.997 142.696 843.008C122.899 814.336 113 778.496 113 735.488C113 709.547 116.072 675.755 122.216 634.112C129.043 592.469 137.235 546.731 146.792 496.896C156.349 446.379 165.565 395.179 174.44 343.296L120.168 233.728C158.397 211.883 194.92 194.133 229.736 180.48C265.235 166.827 302.44 160 341.352 160C357.736 160 371.389 162.731 382.312 168.192C393.235 173.653 402.109 181.163 408.936 190.72C438.291 180.48 465.939 172.971 491.88 168.192C517.821 163.413 542.397 161.024 565.608 161.024C627.731 161.024 679.613 175.019 721.256 203.008C762.899 230.997 793.96 267.861 814.44 313.6C835.603 359.339 846.184 409.173 846.184 463.104C846.184 506.112 839.357 549.461 825.704 593.152C812.733 636.843 792.595 678.827 765.288 719.104C738.664 759.381 705.213 795.221 664.936 826.624C624.659 858.027 577.555 882.944 523.624 901.376C469.693 919.125 408.936 928 341.352 928ZM398.17 747.292C441.801 747.292 478.256 736.519 507.534 714.972C537.387 693.426 559.777 665.075 574.703 629.921C589.63 594.766 597.093 556.776 597.093 515.951C597.093 464.92 585.324 423.528 561.786 391.776C538.248 359.456 503.229 343.296 456.727 343.296C451.56 343.296 446.106 343.58 440.365 344.147C434.625 344.714 428.597 345.564 422.281 346.698C418.837 369.379 414.244 397.729 408.503 431.75C403.336 465.771 397.308 502.059 390.419 540.616C384.104 578.606 377.789 615.745 371.474 652.034C365.733 687.756 361.141 718.374 357.696 743.89C364.585 745.024 371.474 745.875 378.363 746.442C385.253 747.009 391.855 747.292 398.17 747.292Z" fill="#AD0709"/>
</svg>
